<?xml version="1.0" encoding="UTF-8" standalone="no"?>
<svg
   xmlns:dc="http://purl.org/dc/elements/1.1/"
   xmlns:cc="http://creativecommons.org/ns#"
   xmlns:rdf="http://www.w3.org/1999/02/22-rdf-syntax-ns#"
   xmlns:svg="http://www.w3.org/2000/svg"
   xmlns="http://www.w3.org/2000/svg"
   xmlns:sodipodi="http://sodipodi.sourceforge.net/DTD/sodipodi-0.dtd"
   xmlns:inkscape="http://www.inkscape.org/namespaces/inkscape"
   inkscape:version="1.0 (4035a4fb49, 2020-05-01)"
   sodipodi:docname="nophoto.svg"
   id="svg8"
   xml:space="preserve"
   enable-background="new 0 0 1000 1000"
   viewBox="0 0 1000 1000"
   y="0px"
   x="0px"
   version="1.1"><defs
   id="defs12" /><sodipodi:namedview
   inkscape:current-layer="svg8"
   inkscape:window-maximized="1"
   inkscape:window-y="-8"
   inkscape:window-x="-8"
   inkscape:cy="500"
   inkscape:cx="500"
   inkscape:zoom="0.672"
   showgrid="false"
   id="namedview10"
   inkscape:window-height="1017"
   inkscape:window-width="1920"
   inkscape:pageshadow="2"
   inkscape:pageopacity="0"
   guidetolerance="10"
   gridtolerance="10"
   objecttolerance="10"
   borderopacity="1"
   bordercolor="#666666"
   pagecolor="#ffffff" />
<metadata
   id="metadata2"> Svg Vector Icons : http://www.onlinewebfonts.com/icon <rdf:RDF><cc:Work
     rdf:about=""><dc:format>image/svg+xml</dc:format><dc:type
       rdf:resource="http://purl.org/dc/dcmitype/StillImage" /></cc:Work></rdf:RDF></metadata>
<g
   style="fill:#cccccc"
   id="g6"><path
     style="fill:#cccccc"
     id="path4"
     d="M 500,990 C 770.2,990 990,770.2 990,500 990,229.8 770.2,10 500,10 229.8,10 10,229.8 10,500 10,770.2 229.8,990 500,990 Z m 0,-35 C 380.8,955 265.9,894.1 176.4,815.2 L 164,804.4 174.6,791.9 c 31.4,-37.3 87,-68.4 156.5,-87.5 24.8,-9.9 36.9,-16.5 45.9,-25.4 9.6,-9.6 14.8,-18.5 16.7,-28.5 1.2,-6.8 0.9,-42.6 -0.1,-74.3 -17.2,-19.5 -32.2,-48.5 -46.5,-90.5 -14.8,-7.7 -28,-26.7 -32,-47.6 -4.2,-22.4 -1.9,-41.2 6.1,-52.4 C 302.7,278 314.5,198.1 356.3,148 389,108.8 438.8,89.1 504.6,89.1 l 6,-0.1 c 54.7,0 67.3,11.4 79.1,27.6 2.3,3.1 4.2,5.6 7,7.9 30.3,0 55.4,12.1 72.7,35.1 32.9,43.5 36.9,126.8 11.1,224.4 9.1,11.1 11.7,31.3 6.3,55.2 -5,22.3 -20.6,42.2 -36.5,48.3 -11.7,38.4 -23.6,67.5 -42.3,89.4 V 647 c 2,15.5 7.9,21.2 18.7,31.6 l 7.1,7.1 c 6.6,5.4 12.6,8.2 39.1,19.8 66.5,18.4 121.6,49.3 152.7,86.3 l 10.5,12.5 -12.3,10.9 C 734,894.1 619.1,955 500,955 Z" /></g>
</svg>
